SplineFontDB: 3.0
FontName: Untitled1
FullName: Untitled1
FamilyName: Untitled1
Weight: Medium
Copyright: Created by Ne'meth La'szlo',,, with FontForge 2.0 (http://fontforge.sf.net)
Version: 001.000
ItalicAngle: 0
UnderlinePosition: -100
UnderlineWidth: 50
Ascent: 800
Descent: 200
sfntRevision: 0x00010000
LayerCount: 2
Layer: 0 1 "Back"  1
Layer: 1 1 "Fore"  0
NeedsXUIDChange: 1
XUID: [1021 657 1927566138 14045854]
FSType: 0
OS2Version: 1
OS2_WeightWidthSlopeOnly: 0
OS2_UseTypoMetrics: 1
CreationTime: 1311848648
ModificationTime: 1316377745
PfmFamily: 17
TTFWeight: 500
TTFWidth: 5
LineGap: 90
VLineGap: 0
Panose: 2 0 6 3 0 0 0 0 0 0
OS2TypoAscent: 0
OS2TypoAOffset: 1
OS2TypoDescent: 0
OS2TypoDOffset: 1
OS2TypoLinegap: 90
OS2WinAscent: 0
OS2WinAOffset: 1
OS2WinDescent: 1
OS2WinDOffset: 1
HheadAscent: 0
HheadAOffset: 1
HheadDescent: -1
HheadDOffset: 1
OS2SubXSize: 650
OS2SubYSize: 699
OS2SubXOff: 0
OS2SubYOff: 140
OS2SupXSize: 650
OS2SupYSize: 699
OS2SupXOff: 0
OS2SupYOff: 479
OS2StrikeYSize: 49
OS2StrikeYPos: 258
OS2Vendor: 'PfEd'
OS2CodePages: 00000001.00000000
OS2UnicodeRanges: 00000000.10000000.00000000.00000000
DEI: 91125
ShortTable: cvt  2
  33
  633
EndShort
ShortTable: maxp 16
  1
  0
  13
  183
  4
  0
  0
  2
  0
  1
  1
  0
  64
  46
  0
  0
EndShort
LangName: 1033 "Created by N+AOkA-meth L+AOEA-szl+APMA,,, with FontForge 2.0 (http://fontforge.sf.net)" "" "" "FontForge : Untitled1 : 28-7-2011" 
GaspTable: 1 65535 2
Encoding: UnicodeBmp
UnicodeInterp: none
NameList: Adobe Glyph List
DisplaySize: -24
AntiAlias: 1
FitToEm: 1
WinInfo: 57505 53 16
BeginChars: 65539 28

StartChar: .notdef
Encoding: 65536 -1 0
Width: 364
Flags: W
LayerCount: 2
Fore
SplineSet
33 0 m 1,0,-1
 33 666 l 1,1,-1
 298 666 l 1,2,-1
 298 0 l 1,3,-1
 33 0 l 1,0,-1
66 33 m 1,4,-1
 265 33 l 1,5,-1
 265 633 l 1,6,-1
 66 633 l 1,7,-1
 66 33 l 1,4,-1
EndSplineSet
EndChar

StartChar: uni0150
Encoding: 336 336 3
Width: 699
Flags: W
LayerCount: 2
Fore
SplineSet
522 790 m 0,0,1
 522 777 522 777 517 774 c 2,2,-1
 404 698 l 2,3,4
 381 683 381 683 379 683 c 0,5,6
 366 683 366 683 366 699 c 0,7,8
 366 709 366 709 369 712 c 2,9,-1
 448 814 l 2,10,11
 458 827 458 827 479 827 c 0,12,13
 496 827 496 827 509 816 c 128,-1,14
 522 805 522 805 522 790 c 0,0,1
654 778 m 256,15,16
 654 760 654 760 640 753 c 2,17,-1
 522 694 l 2,18,19
 507 686 507 686 506 686 c 0,20,21
 500 686 500 686 495.5 690.5 c 128,-1,22
 491 695 491 695 491 702 c 0,23,24
 491 711 491 711 495 716 c 2,25,-1
 583 804 l 1,26,27
 593 822 593 822 612 822 c 0,28,29
 630 822 630 822 642 809 c 128,-1,30
 654 796 654 796 654 778 c 256,15,16
456 616 m 0,31,32
 367 616 367 616 306 509 c 0,33,34
 278 460 278 460 255.5 380 c 128,-1,35
 233 300 233 300 233 226 c 0,36,37
 233 134 233 134 271 83 c 128,-1,38
 309 32 309 32 374 32 c 0,39,40
 433 32 433 32 483.5 86.5 c 128,-1,41
 534 141 534 141 563 231 c 128,-1,42
 592 321 592 321 592 423 c 0,43,44
 592 516 592 516 555.5 566 c 128,-1,45
 519 616 519 616 456 616 c 0,31,32
347 -10 m 0,46,47
 236 -10 236 -10 162 58 c 128,-1,48
 88 126 88 126 88 241 c 0,49,50
 88 415 88 415 219 546 c 0,51,52
 331 658 331 658 476 658 c 0,53,54
 592 658 592 658 664.5 589 c 128,-1,55
 737 520 737 520 737 404 c 0,56,57
 737 291 737 291 686.5 196 c 128,-1,58
 636 101 636 101 546 45.5 c 128,-1,59
 456 -10 456 -10 347 -10 c 0,46,47
EndSplineSet
EndChar

StartChar: uni0151
Encoding: 337 337 4
Width: 479
Flags: WO
LayerCount: 2
Fore
SplineSet
382 610 m 0,0,1
 382 599 382 599 377 594 c 2,2,-1
 277 502 l 2,3,4
 260 487 260 487 252 487 c 0,5,6
 239 487 239 487 239 503 c 0,7,8
 239 511 239 511 242 516 c 2,9,-1
 308 634 l 2,10,11
 315 647 315 647 339 647 c 0,12,13
 356 647 356 647 369 636 c 128,-1,14
 382 625 382 625 382 610 c 0,0,1
514 598 m 0,15,16
 514 583 514 583 500 573 c 2,17,-1
 395 498 l 2,18,19
 384 490 384 490 379 490 c 0,20,21
 373 490 373 490 368.5 494.5 c 128,-1,22
 364 499 364 499 364 506 c 256,23,24
 364 513 364 513 368 520 c 2,25,-1
 443 624 l 1,26,27
 453 642 453 642 472 642 c 0,28,29
 490 642 490 642 502 629 c 128,-1,30
 514 616 514 616 514 598 c 0,15,16
196 180 m 0,31,32
 196 107 196 107 213.5 69.5 c 128,-1,33
 231 32 231 32 255 32 c 0,34,35
 371 32 371 32 371 260 c 0,36,37
 371 290 371 290 370 307 c 128,-1,38
 369 324 369 324 364.5 348.5 c 128,-1,39
 360 373 360 373 348.5 385 c 128,-1,40
 337 397 337 397 318 397 c 0,41,42
 282 397 282 397 256.5 376.5 c 128,-1,43
 231 356 231 356 218.5 321.5 c 128,-1,44
 206 287 206 287 201 252.5 c 128,-1,45
 196 218 196 218 196 180 c 0,31,32
67 162 m 0,46,47
 67 261 67 261 143 350 c 128,-1,48
 219 439 219 439 336 439 c 0,49,50
 420 439 420 439 460 390 c 128,-1,51
 500 341 500 341 500 277 c 0,52,53
 500 181 500 181 456 113 c 128,-1,54
 412 45 412 45 342 9 c 0,55,56
 304 -10 304 -10 230 -10 c 0,57,58
 185 -10 185 -10 151.5 9 c 128,-1,59
 118 28 118 28 100.5 56.5 c 128,-1,60
 83 85 83 85 75 112 c 128,-1,61
 67 139 67 139 67 162 c 0,46,47
EndSplineSet
EndChar

StartChar: uni0170
Encoding: 368 368 5
Width: 702
Flags: W
LayerCount: 2
Fore
SplineSet
552 790 m 0,0,1
 552 777 552 777 547 774 c 2,2,-1
 434 698 l 2,3,4
 411 683 411 683 409 683 c 0,5,6
 396 683 396 683 396 699 c 0,7,8
 396 709 396 709 399 712 c 2,9,-1
 478 814 l 2,10,11
 488 827 488 827 509 827 c 0,12,13
 526 827 526 827 539 816 c 128,-1,14
 552 805 552 805 552 790 c 0,0,1
684 778 m 256,15,16
 684 760 684 760 670 753 c 2,17,-1
 552 694 l 2,18,19
 537 686 537 686 536 686 c 0,20,21
 530 686 530 686 525.5 690.5 c 128,-1,22
 521 695 521 695 521 702 c 0,23,24
 521 711 521 711 525 716 c 2,25,-1
 613 804 l 1,26,27
 623 822 623 822 642 822 c 0,28,29
 660 822 660 822 672 809 c 128,-1,30
 684 796 684 796 684 778 c 256,15,16
319 522 m 2,31,-1
 270 269 l 1,32,33
 257 224 257 224 257.5 168.5 c 128,-1,34
 258 113 258 113 283 82 c 0,35,36
 323 32 323 32 387 32 c 0,37,38
 434 32 434 32 470.5 47.5 c 128,-1,39
 507 63 507 63 529.5 85.5 c 128,-1,40
 552 108 552 108 569.5 143 c 128,-1,41
 587 178 587 178 595 207.5 c 128,-1,42
 603 237 603 237 611 277 c 2,43,-1
 659 522 l 2,44,45
 664 548 664 548 664 563 c 128,-1,46
 664 578 664 578 662 587.5 c 128,-1,47
 660 597 660 597 647.5 602 c 128,-1,48
 635 607 635 607 625 608.5 c 128,-1,49
 615 610 615 610 588 613 c 1,50,51
 584 618 584 618 587 630 c 128,-1,52
 590 642 590 642 595 647 c 1,53,54
 691 645 691 645 717 645 c 0,55,56
 726 645 726 645 820 647 c 1,57,58
 824 642 824 642 821 630 c 128,-1,59
 818 618 818 618 813 613 c 1,60,61
 786 610 786 610 775.5 607.5 c 128,-1,62
 765 605 765 605 752.5 596 c 128,-1,63
 740 587 740 587 734 570 c 128,-1,64
 728 553 728 553 722 522 c 2,65,-1
 677 295 l 2,66,67
 663 225 663 225 639.5 171.5 c 128,-1,68
 616 118 616 118 579 76 c 128,-1,69
 542 34 542 34 486.5 12 c 128,-1,70
 431 -10 431 -10 359 -10 c 0,71,72
 226 -10 226 -10 173 32 c 0,73,74
 100 89 100 89 129 236 c 2,75,-1
 185 522 l 2,76,77
 196 581 196 581 185.5 596 c 128,-1,78
 175 611 175 611 129 613 c 1,79,80
 125 618 125 618 127.5 630 c 128,-1,81
 130 642 130 642 135 647 c 1,82,83
 231 645 231 645 275 645 c 0,84,85
 338 645 338 645 432 647 c 1,86,87
 436 642 436 642 433 630 c 128,-1,88
 430 618 430 618 425 613 c 1,89,90
 366 611 366 611 348.5 596.5 c 128,-1,91
 331 582 331 582 319 522 c 2,31,-1
EndSplineSet
EndChar

StartChar: uni0171
Encoding: 369 369 6
Width: 646
Flags: W
LayerCount: 2
Fore
SplineSet
452 610 m 0,0,1
 452 599 452 599 447 594 c 2,2,-1
 347 502 l 2,3,4
 330 487 330 487 322 487 c 0,5,6
 309 487 309 487 309 503 c 0,7,8
 309 511 309 511 312 516 c 2,9,-1
 378 634 l 2,10,11
 385 647 385 647 409 647 c 0,12,13
 426 647 426 647 439 636 c 128,-1,14
 452 625 452 625 452 610 c 0,0,1
584 598 m 0,15,16
 584 583 584 583 570 573 c 2,17,-1
 465 498 l 2,18,19
 454 490 454 490 449 490 c 0,20,21
 443 490 443 490 438.5 494.5 c 128,-1,22
 434 499 434 499 434 506 c 256,23,24
 434 513 434 513 438 520 c 2,25,-1
 513 624 l 1,26,27
 523 642 523 642 542 642 c 0,28,29
 560 642 560 642 572 629 c 128,-1,30
 584 616 584 616 584 598 c 0,15,16
431 107 m 1,31,32
 431 107 431 107 429 99 c 1,33,34
 430 104 430 104 434 122 c 1,35,-1
 432 124 l 1,36,37
 367 49 367 49 321.5 21.5 c 128,-1,38
 276 -6 276 -6 233 -6 c 0,39,40
 198 -6 198 -6 171 14.5 c 128,-1,41
 144 35 144 35 144 76 c 0,42,43
 144 116 144 116 152 150 c 2,44,-1
 190 309 l 2,45,46
 205 370 205 370 186 370 c 0,47,48
 177 370 177 370 155 356.5 c 128,-1,49
 133 343 133 343 116 323 c 1,50,51
 106 323 106 323 98 332.5 c 128,-1,52
 90 342 90 342 87 351 c 1,53,54
 121 395 121 395 170 419 c 128,-1,55
 219 443 219 443 272 443 c 0,56,57
 293 443 293 443 303.5 435 c 128,-1,58
 314 427 314 427 321 410 c 0,59,60
 330 385 330 385 314 318 c 2,61,-1
 277 158 l 1,62,63
 268 127 268 127 275 101.5 c 128,-1,64
 282 76 282 76 308 76 c 0,65,66
 332 76 332 76 359 104 c 128,-1,67
 386 132 386 132 443 205 c 1,68,-1
 481 361 l 2,69,70
 482 366 482 366 485 380 c 128,-1,71
 488 394 488 394 489.5 400 c 128,-1,72
 491 406 491 406 496 416 c 128,-1,73
 501 426 501 426 507 430.5 c 128,-1,74
 513 435 513 435 524 439 c 128,-1,75
 535 443 535 443 550 443 c 0,76,77
 589 443 589 443 602.5 436.5 c 128,-1,78
 616 430 616 430 616 416 c 0,79,80
 616 411 616 411 613.5 402.5 c 128,-1,81
 611 394 611 394 607.5 381 c 128,-1,82
 604 368 604 368 603 361 c 2,83,-1
 551 124 l 2,84,85
 544 93 544 93 544 81 c 0,86,87
 544 63 544 63 555 63 c 0,88,89
 564 63 564 63 585.5 76.5 c 128,-1,90
 607 90 607 90 625 110 c 1,91,92
 634 110 634 110 642.5 100.5 c 128,-1,93
 651 91 651 91 654 82 c 1,94,95
 582 -10 582 -10 476 -10 c 0,96,97
 438 -10 438 -10 426 23 c 0,98,99
 423 32 423 32 423 47 c 0,100,101
 423 58 423 58 431 107 c 1,31,32
EndSplineSet
EndChar

StartChar: uni0218
Encoding: 536 536 7
Width: 482
Flags: W
LayerCount: 2
Fore
SplineSet
208 -51 m 0,0,1
 236 -51 236 -51 251.5 -68.5 c 128,-1,2
 267 -86 267 -86 257 -129 c 0,3,4
 248 -170 248 -170 209.5 -199.5 c 128,-1,5
 171 -229 171 -229 120 -238 c 1,6,7
 111 -231 111 -231 121 -210 c 1,8,9
 150 -202 150 -202 170.5 -186.5 c 128,-1,10
 191 -171 191 -171 194 -157 c 1,11,12
 193 -151 193 -151 194 -147.5 c 128,-1,13
 195 -144 195 -144 190.5 -141 c 128,-1,14
 186 -138 186 -138 184.5 -137 c 128,-1,15
 183 -136 183 -136 178 -135 c 2,16,-1
 172 -134 l 1,17,18
 143 -126 143 -126 152 -89 c 0,19,20
 155 -76 155 -76 173.5 -63.5 c 128,-1,21
 192 -51 192 -51 208 -51 c 0,0,1
526 631 m 1,22,23
 518 537 518 537 507 479 c 1,24,25
 488 465 488 465 458 474 c 1,26,27
 456 504 456 504 452 525 c 128,-1,28
 448 546 448 546 438.5 569.5 c 128,-1,29
 429 593 429 593 409 605 c 128,-1,30
 389 617 389 617 360 617 c 0,31,32
 323 617 323 617 296 593 c 128,-1,33
 269 569 269 569 261 527 c 0,34,35
 254 489 254 489 281.5 453.5 c 128,-1,36
 309 418 309 418 343 398 c 0,37,38
 420 353 420 353 453 304 c 0,39,40
 492 246 492 246 480 184 c 0,41,42
 465 106 465 106 387 44 c 0,43,44
 318 -10 318 -10 232 -10 c 0,45,46
 156 -10 156 -10 110 0 c 128,-1,47
 64 10 64 10 46 10 c 1,48,49
 40 81 40 81 59 175 c 1,50,51
 94 184 94 184 108 178 c 1,52,53
 109 112 109 112 144 72 c 128,-1,54
 179 32 179 32 229 32 c 0,55,56
 273 32 273 32 305 55 c 128,-1,57
 337 78 337 78 345 115 c 0,58,59
 358 180 358 180 283 243 c 0,60,61
 274 251 274 251 241 273 c 128,-1,62
 208 295 208 295 182 318 c 128,-1,63
 156 341 156 341 142 369 c 1,64,65
 119 411 119 411 133 485 c 0,66,67
 146 557 146 557 220 610 c 0,68,69
 286 658 286 658 369 658 c 0,70,71
 422 658 422 658 471.5 645 c 128,-1,72
 521 632 521 632 526 631 c 1,22,23
EndSplineSet
EndChar

StartChar: scommaaccent
Encoding: 537 537 8
Width: 417
Flags: W
LayerCount: 2
Fore
SplineSet
208 -51 m 0,0,1
 236 -51 236 -51 251.5 -68.5 c 128,-1,2
 267 -86 267 -86 257 -129 c 0,3,4
 248 -170 248 -170 209.5 -199.5 c 128,-1,5
 171 -229 171 -229 120 -238 c 1,6,7
 111 -231 111 -231 121 -210 c 1,8,9
 150 -202 150 -202 170.5 -186.5 c 128,-1,10
 191 -171 191 -171 194 -157 c 1,11,12
 193 -151 193 -151 194 -147.5 c 128,-1,13
 195 -144 195 -144 190.5 -141 c 128,-1,14
 186 -138 186 -138 184.5 -137 c 128,-1,15
 183 -136 183 -136 178 -135 c 2,16,-1
 172 -134 l 1,17,18
 143 -126 143 -126 152 -89 c 0,19,20
 155 -76 155 -76 173.5 -63.5 c 128,-1,21
 192 -51 192 -51 208 -51 c 0,0,1
426 355 m 0,22,23
 429 334 429 334 416 319 c 128,-1,24
 403 304 403 304 389 300 c 0,25,26
 372 295 372 295 357 301 c 128,-1,27
 342 307 342 307 336 322 c 0,28,29
 335 325 335 325 331.5 334.5 c 128,-1,30
 328 344 328 344 326.5 348 c 128,-1,31
 325 352 325 352 321 360.5 c 128,-1,32
 317 369 317 369 314 372.5 c 128,-1,33
 311 376 311 376 306.5 382 c 128,-1,34
 302 388 302 388 297 390.5 c 128,-1,35
 292 393 292 393 285 395 c 128,-1,36
 278 397 278 397 270 397 c 0,37,38
 249 397 249 397 232.5 384 c 128,-1,39
 216 371 216 371 216 353 c 128,-1,40
 216 335 216 335 223.5 320 c 128,-1,41
 231 305 231 305 245.5 293 c 128,-1,42
 260 281 260 281 268.5 275.5 c 128,-1,43
 277 270 277 270 292 262 c 0,44,45
 405 202 405 202 405 130 c 0,46,47
 405 76 405 76 359.5 33 c 128,-1,48
 314 -10 314 -10 227 -10 c 0,49,50
 161 -10 161 -10 113 14.5 c 128,-1,51
 65 39 65 39 65 87 c 0,52,53
 65 109 65 109 79.5 123.5 c 128,-1,54
 94 138 94 138 108 138 c 0,55,56
 147 138 147 138 172 80 c 0,57,58
 193 32 193 32 248 32 c 0,59,60
 267 32 267 32 283.5 46.5 c 128,-1,61
 300 61 300 61 300 81 c 0,62,63
 300 144 300 144 236 181 c 0,64,65
 185 211 185 211 153.5 245.5 c 128,-1,66
 122 280 122 280 122 311 c 0,67,68
 122 349 122 349 139 375.5 c 128,-1,69
 156 402 156 402 184 415 c 128,-1,70
 212 428 212 428 239.5 433.5 c 128,-1,71
 267 439 267 439 297 439 c 0,72,73
 345 439 345 439 383.5 415 c 128,-1,74
 422 391 422 391 426 355 c 0,22,23
EndSplineSet
EndChar

StartChar: uni021A
Encoding: 538 538 9
Width: 625
Flags: W
LayerCount: 2
Fore
SplineSet
308 -51 m 0,0,1
 336 -51 336 -51 351.5 -68.5 c 128,-1,2
 367 -86 367 -86 357 -129 c 0,3,4
 348 -170 348 -170 309.5 -199.5 c 128,-1,5
 271 -229 271 -229 220 -238 c 1,6,7
 211 -231 211 -231 221 -210 c 1,8,9
 250 -202 250 -202 270.5 -186.5 c 128,-1,10
 291 -171 291 -171 294 -157 c 1,11,12
 293 -151 293 -151 294 -147.5 c 128,-1,13
 295 -144 295 -144 290.5 -141 c 128,-1,14
 286 -138 286 -138 284.5 -137 c 128,-1,15
 283 -136 283 -136 278 -135 c 2,16,-1
 272 -134 l 1,17,18
 243 -126 243 -126 252 -89 c 0,19,20
 255 -76 255 -76 273.5 -63.5 c 128,-1,21
 292 -51 292 -51 308 -51 c 0,0,1
413 123 m 2,22,23
 401 63 401 63 414.5 48.5 c 128,-1,24
 428 34 428 34 488 32 c 1,25,26
 492 27 492 27 489 15 c 128,-1,27
 486 3 486 3 481 -2 c 1,28,29
 385 0 385 0 320 0 c 128,-1,30
 255 0 255 0 161 -2 c 1,31,32
 157 3 157 3 159.5 15 c 128,-1,33
 162 27 162 27 167 32 c 1,34,35
 228 34 228 34 247 48.5 c 128,-1,36
 266 63 266 63 278 123 c 2,37,-1
 353 506 l 2,38,39
 363 552 363 552 358 578.5 c 128,-1,40
 353 605 353 605 327 605 c 2,41,-1
 280 605 l 2,42,43
 231 605 231 605 196.5 581 c 128,-1,44
 162 557 162 557 137 499 c 1,45,46
 112 499 112 499 101 504 c 1,47,48
 133 581 133 581 153 650 c 0,49,50
 153 653 153 653 158 653 c 0,51,52
 254 645 254 645 380 645 c 2,53,-1
 515 645 l 2,54,55
 644 645 644 645 732 653 c 0,56,57
 734 653 734 653 734 650 c 0,58,59
 722 585 722 585 719 507 c 1,60,61
 708 502 708 502 680 502 c 1,62,63
 679 558 679 558 653.5 581.5 c 128,-1,64
 628 605 628 605 572 605 c 2,65,-1
 550 605 l 2,66,67
 525 605 525 605 511 580 c 128,-1,68
 497 555 497 555 487 503 c 2,69,-1
 413 123 l 2,22,23
EndSplineSet
EndChar

StartChar: uni021B
Encoding: 539 539 10
Width: 367
Flags: W
LayerCount: 2
Fore
SplineSet
158 -51 m 0,0,1
 186 -51 186 -51 201.5 -68.5 c 128,-1,2
 217 -86 217 -86 207 -129 c 0,3,4
 198 -170 198 -170 159.5 -199.5 c 128,-1,5
 121 -229 121 -229 70 -238 c 1,6,7
 61 -231 61 -231 71 -210 c 1,8,9
 100 -202 100 -202 120.5 -186.5 c 128,-1,10
 141 -171 141 -171 144 -157 c 1,11,12
 143 -151 143 -151 144 -147.5 c 128,-1,13
 145 -144 145 -144 140.5 -141 c 128,-1,14
 136 -138 136 -138 134.5 -137 c 128,-1,15
 133 -136 133 -136 128 -135 c 2,16,-1
 122 -134 l 1,17,18
 93 -126 93 -126 102 -89 c 0,19,20
 105 -76 105 -76 123.5 -63.5 c 128,-1,21
 142 -51 142 -51 158 -51 c 0,0,1
118 118 m 2,22,-1
 179 382 l 1,23,-1
 109 382 l 2,24,25
 103 382 103 382 103 384 c 0,26,27
 103 394 103 394 108 409 c 1,28,29
 112 425 112 425 136 426 c 2,30,-1
 189 429 l 1,31,-1
 202 479 l 2,32,33
 204 486 204 486 207 500.5 c 128,-1,34
 210 515 210 515 212 522 c 128,-1,35
 214 529 214 529 218 538.5 c 128,-1,36
 222 548 222 548 229 553 c 128,-1,37
 236 558 236 558 246 561 c 0,38,39
 259 564 259 564 274 567 c 128,-1,40
 289 570 289 570 305 572 c 128,-1,41
 321 574 321 574 331.5 572 c 128,-1,42
 342 570 342 570 342 564 c 0,43,44
 342 563 342 563 322 474 c 2,45,-1
 312 429 l 1,46,-1
 411 429 l 1,47,48
 419 423 419 423 414 404.5 c 128,-1,49
 409 386 409 386 400 382 c 1,50,-1
 302 382 l 1,51,-1
 242 127 l 2,52,53
 235 99 235 99 235 84 c 0,54,55
 235 66 235 66 246 66 c 0,56,57
 255 66 255 66 276.5 79.5 c 128,-1,58
 298 93 298 93 316 113 c 1,59,60
 325 113 325 113 333.5 103.5 c 128,-1,61
 342 94 342 94 345 85 c 1,62,63
 259 -10 259 -10 159 -10 c 0,64,65
 108 -10 108 -10 108 47 c 0,66,67
 108 76 108 76 118 118 c 2,22,-1
EndSplineSet
EndChar

StartChar: uniE033
Encoding: 57395 57395 11
Width: 980
Flags: W
LayerCount: 2
Fore
SplineSet
191 382 m 1,0,-1
 109 382 l 2,1,2
 103 382 103 382 103 384 c 0,3,4
 103 397 103 397 107 409 c 0,5,6
 110.977 424.908 110.977 424.908 135 426 c 2,7,-1
 201 429 l 1,8,9
 223 537 223 537 293 619 c 0,10,11
 318 649 318 649 366.5 666 c 128,-1,12
 415 683 415 683 447 683 c 0,13,14
 500 683 500 683 540 664 c 128,-1,15
 580 645 580 645 594 617 c 1,16,17
 604 632 604 632 614 644 c 0,18,19
 640 674 640 674 699 691 c 128,-1,20
 758 708 758 708 788 708 c 0,21,22
 840 708 840 708 881 689 c 1,23,24
 893 685 893 685 910 676 c 0,25,26
 941 660 941 660 965 636.5 c 128,-1,27
 989 613 989 613 989 592 c 0,28,29
 989 570 989 570 969 550 c 128,-1,30
 949 530 949 530 918 530 c 0,31,32
 886 530 886 530 873.5 551.5 c 128,-1,33
 861 573 861 573 854 618 c 0,34,35
 851 635 851 635 831.5 645.5 c 128,-1,36
 812 656 812 656 790 656 c 0,37,38
 752 656 752 656 742 653 c 1,39,40
 729 646 729 646 718 637 c 1,41,42
 698 618 698 618 685 585 c 0,43,44
 667.623 541.046 667.623 541.046 657 486 c 2,45,-1
 646 429 l 1,46,-1
 786 429 l 2,47,48
 810 429 810 429 870.5 432.5 c 128,-1,49
 931 436 931 436 943 436 c 0,50,51
 964 436 964 436 964 415 c 0,52,53
 964 407 964 407 960.5 393 c 128,-1,54
 957 379 957 379 951.5 357.5 c 0,55,56
 946.917 339.583 946.917 339.583 943 320 c 2,57,-1
 926 235 l 2,58,59
 926 233 926 233 926 230 c 0,60,61
 911 162 911 162 903.5 128.5 c 128,-1,62
 896 95 896 95 881 39.5 c 128,-1,63
 866 -16 866 -16 854 -44 c 128,-1,64
 842 -72 842 -72 822 -109 c 128,-1,65
 802 -146 802 -146 781 -163.5 c 128,-1,66
 760 -181 760 -181 730 -194 c 128,-1,67
 700 -207 700 -207 665 -207 c 0,68,69
 616 -207 616 -207 585 -192 c 128,-1,70
 554 -177 554 -177 554 -144 c 0,71,72
 554 -123 554 -123 566.5 -111 c 128,-1,73
 579 -99 579 -99 594 -99 c 0,74,75
 616 -99 616 -99 630.5 -110.5 c 128,-1,76
 645 -122 645 -122 650 -135.5 c 128,-1,77
 655 -149 655 -149 663.5 -160.5 c 128,-1,78
 672 -172 672 -172 684 -172 c 0,79,80
 702 -172 702 -172 716 -146 c 128,-1,81
 730 -120 730 -120 746 -56 c 0,82,83
 756 -16 756 -16 769.5 60.5 c 0,84,85
 783.4 139.267 783.4 139.267 791 176 c 2,86,-1
 821 321 l 2,87,88
 827 350 827 350 827 362 c 0,89,90
 827 381 827 381 809 382 c 1,91,-1
 762 382 l 1,92,-1
 639 382 l 1,93,-1
 636 365 l 2,94,95
 626.167 309.278 626.167 309.278 611.5 239.5 c 0,96,97
 593.985 156.169 593.985 156.169 589 130 c 2,98,-1
 585 109 l 1,99,100
 569 34 569 34 550 -17.5 c 128,-1,101
 531 -69 531 -69 518 -89 c 128,-1,102
 505 -109 505 -109 482 -136 c 0,103,104
 456 -166 456 -166 412.5 -186 c 128,-1,105
 369 -206 369 -206 332 -206 c 0,106,107
 276 -206 276 -206 247 -185.5 c 128,-1,108
 218 -165 218 -165 218 -141 c 0,109,110
 218 -123 218 -123 230 -109 c 128,-1,111
 242 -95 242 -95 265 -95 c 0,112,113
 282 -95 282 -95 298.5 -106.5 c 128,-1,114
 315 -118 315 -118 321 -131 c 256,115,116
 327 -144 327 -144 334 -150.5 c 128,-1,117
 341 -157 341 -157 354 -157 c 0,118,119
 368 -157 368 -157 383.5 -146.5 c 128,-1,120
 399 -136 399 -136 409 -121 c 0,121,122
 422 -101 422 -101 431 -79.5 c 128,-1,123
 440 -58 440 -58 447 -24 c 128,-1,124
 454 10 454 10 456.5 24 c 128,-1,125
 459 38 459 38 465 86 c 128,-1,126
 471 134 471 134 472 141 c 0,127,128
 482 219 482 219 511 382 c 1,129,-1
 432 382 l 1,130,-1
 429 382 l 1,131,-1
 419 382 l 1,132,-1
 319 382 l 1,133,-1
 316 365 l 2,134,135
 306.167 309.278 306.167 309.278 291.5 239.5 c 0,136,137
 275 161 275 161 269 130 c 0,138,139
 257 67 257 67 242 17.5 c 128,-1,140
 227 -32 227 -32 209 -67.5 c 128,-1,141
 191 -103 191 -103 180 -120.5 c 128,-1,142
 169 -138 169 -138 151 -163 c 0,143,144
 123 -200 123 -200 86.5 -219 c 128,-1,145
 50 -238 50 -238 12 -238 c 0,146,147
 -44 -238 -44 -238 -73 -217.5 c 128,-1,148
 -102 -197 -102 -197 -102 -173 c 0,149,150
 -102 -155 -102 -155 -90 -141 c 128,-1,151
 -78 -127 -78 -127 -55 -127 c 0,152,153
 -38 -127 -38 -127 -21.5 -138 c 128,-1,154
 -5 -149 -5 -149 1 -163 c 0,155,156
 7 -176 7 -176 14 -182.5 c 128,-1,157
 21 -189 21 -189 34 -189 c 0,158,159
 48 -189 48 -189 63.5 -178.5 c 128,-1,160
 79 -168 79 -168 89 -153 c 0,161,162
 105 -128 105 -128 116 -88.5 c 128,-1,163
 127 -49 127 -49 131 -19 c 128,-1,164
 135 11 135 11 141 66.5 c 128,-1,165
 147 122 147 122 150 141 c 0,166,167
 154 171 154 171 191 382 c 1,0,-1
521 429 m 1,168,169
 534 491 534 491 554 540 c 1,170,171
 551 540 551 540 550 540 c 0,172,173
 531 540 531 540 518.5 551 c 128,-1,174
 506 562 506 562 501.5 573.5 c 128,-1,175
 497 585 497 585 494 602 c 0,176,177
 490 620 490 620 479.5 626.5 c 128,-1,178
 469 633 469 633 448 633 c 0,179,180
 390 633 390 633 365 570 c 0,181,182
 342 513 342 513 337 486 c 2,183,-1
 326 429 l 1,184,-1
 445 429 l 1,185,-1
 456 429 l 1,186,-1
 521 429 l 1,168,169
EndSplineSet
EndChar

StartChar: uniE037
Encoding: 57399 57399 12
Width: 660
Flags: W
LayerCount: 2
Fore
SplineSet
191 382 m 1,0,-1
 109 382 l 2,1,2
 103 382 103 382 103 384 c 0,3,4
 103 397 103 397 107 409 c 0,5,6
 110.977 424.908 110.977 424.908 135 426 c 2,7,-1
 201 429 l 1,8,9
 228 557 228 557 293 634 c 0,10,11
 319 664 319 664 378 681 c 128,-1,12
 437 698 437 698 467 698 c 0,13,14
 472 698 472 698 484 698 c 128,-1,15
 496 698 496 698 499 698 c 128,-1,16
 502 698 502 698 511.5 697.5 c 128,-1,17
 521 697 521 697 523.5 697 c 128,-1,18
 526 697 526 697 533.5 696 c 128,-1,19
 541 695 541 695 544.5 694 c 128,-1,20
 548 693 548 693 554.5 691.5 c 128,-1,21
 561 690 561 690 565.5 687.5 c 128,-1,22
 570 685 570 685 576.5 682.5 c 128,-1,23
 583 680 583 680 590 676 c 0,24,25
 621 660 621 660 645 636.5 c 128,-1,26
 669 613 669 613 669 592 c 0,27,28
 669 570 669 570 649 550 c 128,-1,29
 629 530 629 530 598 530 c 0,30,31
 566 530 566 530 553.5 551.5 c 128,-1,32
 541 573 541 573 534 618 c 0,33,34
 529 648 529 648 468 648 c 0,35,36
 390 648 390 648 365 585 c 0,37,38
 347.623 541.046 347.623 541.046 337 486 c 2,39,-1
 326 429 l 1,40,-1
 466 429 l 2,41,42
 490 429 490 429 550.5 432.5 c 128,-1,43
 611 436 611 436 623 436 c 0,44,45
 644 436 644 436 644 415 c 0,46,47
 644 407 644 407 640.5 393 c 128,-1,48
 637 379 637 379 631.5 357.5 c 0,49,50
 626.917 339.583 626.917 339.583 623 320 c 2,51,-1
 606 235 l 2,52,53
 606 233 606 233 606 230 c 0,54,55
 591 162 591 162 583.5 128.5 c 128,-1,56
 576 95 576 95 561 39.5 c 128,-1,57
 546 -16 546 -16 534 -44 c 128,-1,58
 522 -72 522 -72 502 -109 c 128,-1,59
 482 -146 482 -146 461 -163.5 c 128,-1,60
 440 -181 440 -181 410 -194 c 128,-1,61
 380 -207 380 -207 345 -207 c 0,62,63
 296 -207 296 -207 265 -192 c 128,-1,64
 234 -177 234 -177 234 -144 c 0,65,66
 234 -123 234 -123 246.5 -111 c 128,-1,67
 259 -99 259 -99 274 -99 c 0,68,69
 296 -99 296 -99 310.5 -110.5 c 128,-1,70
 325 -122 325 -122 330 -135.5 c 128,-1,71
 335 -149 335 -149 343.5 -160.5 c 128,-1,72
 352 -172 352 -172 364 -172 c 0,73,74
 382 -172 382 -172 396 -146 c 128,-1,75
 410 -120 410 -120 426 -56 c 0,76,77
 436 -16 436 -16 449.5 60.5 c 0,78,79
 463.4 139.267 463.4 139.267 471 176 c 2,80,-1
 501 321 l 2,81,82
 507 350 507 350 507 362 c 0,83,84
 507 381 507 381 489 382 c 1,85,-1
 442 382 l 1,86,-1
 319 382 l 1,87,-1
 316 365 l 2,88,89
 306.167 309.278 306.167 309.278 291.5 239.5 c 0,90,91
 275 161 275 161 269 130 c 0,92,93
 257 67 257 67 242.5 19 c 128,-1,94
 228 -29 228 -29 208 -66 c 128,-1,95
 188 -103 188 -103 180 -115.5 c 128,-1,96
 172 -128 172 -128 151 -158 c 0,97,98
 124 -195 124 -195 87 -214 c 128,-1,99
 50 -233 50 -233 12 -233 c 0,100,101
 -44 -233 -44 -233 -73 -212.5 c 128,-1,102
 -102 -192 -102 -192 -102 -168 c 0,103,104
 -102 -150 -102 -150 -90 -136 c 128,-1,105
 -78 -122 -78 -122 -55 -122 c 0,106,107
 -39 -122 -39 -122 -23.5 -133.5 c 0,108,109
 -23.5 -133.5 -23.5 -133.5 1 -158 c 0,110,111
 2 -159 2 -159 4.5 -163 c 128,-1,112
 7 -167 7 -167 7.5 -168 c 128,-1,113
 8 -169 8 -169 10.5 -172 c 128,-1,114
 13 -175 13 -175 14 -176 c 128,-1,115
 15 -177 15 -177 17.5 -179 c 128,-1,116
 20 -181 20 -181 22.5 -181.5 c 128,-1,117
 25 -182 25 -182 28 -183 c 128,-1,118
 31 -184 31 -184 34 -184 c 0,119,120
 48 -184 48 -184 63.5 -173.5 c 128,-1,121
 79 -163 79 -163 89 -148 c 0,122,123
 105 -123 105 -123 116 -84 c 128,-1,124
 127 -45 127 -45 131 -17 c 128,-1,125
 135 11 135 11 141.5 67 c 128,-1,126
 148 123 148 123 150 141 c 0,127,128
 154 171 154 171 191 382 c 1,0,-1
EndSplineSet
EndChar

StartChar: uniE0F7
Encoding: 57591 57591 13
Width: 849
VWidth: 999
Flags: WO
LayerCount: 2
Fore
SplineSet
331 291 m 2,0,1
 331 350 331 350 323.5 374.5 c 128,-1,2
 316 399 316 399 286 399 c 0,3,4
 275 399 275 399 266.5 397.5 c 128,-1,5
 258 396 258 396 252 392 c 2,6,-1
 241.5 385 l 2,7,8
 237 382 237 382 234.5 373.5 c 128,-1,9
 232 365 232 365 230.5 360.5 c 128,-1,10
 229 356 229 356 228.5 344 c 128,-1,11
 228 332 228 332 228 326 c 2,12,-1
 228 304.5 l 1,13,-1
 228 282 l 2,14,15
 228 276 228 276 227.5 261 c 128,-1,16
 227 246 227 246 227 238.5 c 128,-1,17
 227 231 227 231 228 219 c 128,-1,18
 229 207 229 207 232.5 200 c 128,-1,19
 236 193 236 193 241.5 185.5 c 128,-1,20
 247 178 247 178 256 175 c 128,-1,21
 265 172 265 172 278 172 c 0,22,23
 288 172 288 172 295.5 173.5 c 128,-1,24
 303 175 303 175 308.5 180 c 128,-1,25
 314 185 314 185 318 189 c 128,-1,26
 322 193 322 193 324.5 201.5 c 2,27,-1
 328.5 215.5 l 2,28,29
 330 221 330 221 330.5 233 c 128,-1,30
 331 245 331 245 331 250.5 c 2,31,-1
 331 270.5 l 1,32,-1
 331 291 l 2,0,1
445 291 m 0,33,34
 440.662 216.298 440.662 216.298 393.5 176 c 0,35,36
 342 132 342 132 273 132 c 0,37,38
 232 132 232 132 205 149 c 1,39,40
 191 123 191 123 202 88 c 0,41,42
 210 61 210 61 335 24 c 0,43,44
 383.357 9.68628 383.357 9.68628 420 -22.5 c 0,45,46
 447.02 -46.234 447.02 -46.234 457 -100 c 0,47,48
 461.017 -121.642 461.017 -121.642 425.058 -169.454 c 1,49,50
 453.002 -186 453.002 -186 454 -186 c 0,51,52
 521.222 -186 521.222 -186 597 -62 c 1,53,54
 608 -38 608 -38 580.75 138.75 c 128,-1,55
 553.5 315.5 553.5 315.5 528.5 349.5 c 0,56,57
 522.885 357.361 522.885 357.361 518.326 359.681 c 0,58,59
 509.039 364.404 509.039 364.404 504 362 c 0,60,61
 473.5 347.4 473.5 347.4 443 332.8 c 1,62,63
 446.674 313.091 446.674 313.091 445 291 c 0,33,34
171 -13 m 1,64,65
 119.263 -50.2505 119.263 -50.2505 104.496 -76.0167 c 0,66,67
 94 -94.331 94 -94.331 94 -113 c 0,68,69
 94 -200 94 -200 250 -200 c 0,70,71
 307 -200 307 -200 329.5 -178 c 128,-1,72
 352 -156 352 -156 352 -127 c 0,73,74
 352 -105 352 -105 342 -94 c 128,-1,75
 332 -83 332 -83 292 -64 c 0,76,77
 188 -17 188 -17 171 -13 c 1,64,65
382.726 -206.77 m 1,78,79
 315.382 -238 315.382 -238 209 -238 c 0,80,81
 175 -238 175 -238 141 -233 c 128,-1,82
 107 -228 107 -228 73 -217.5 c 128,-1,83
 39 -207 39 -207 18 -186 c 128,-1,84
 -3 -165 -3 -165 -3 -136 c 0,85,86
 -3 -80 -3 -80 129.882 -8.57342 c 0,87,88
 138 -4 138 -4 142 -2 c 1,89,90
 106 11 106 11 106 56 c 0,91,92
 106 121 106 121 170 165 c 1,93,94
 143 181 143 181 128.5 214.5 c 128,-1,95
 114 248 114 248 114 283 c 0,96,97
 114 347 114 347 162 393 c 128,-1,98
 210 439 210 439 290 439 c 0,99,100
 376 439 376 439 407 402 c 1,101,102
 419.955 388.442 419.955 388.442 428.553 372.979 c 1,103,104
 463.103 392.851 463.103 392.851 515.361 415.503 c 0,105,106
 569.569 439 569.569 439 593 439 c 0,107,108
 611 439 611 439 622.5 422.5 c 128,-1,109
 634 406 634 406 645 365 c 1,110,111
 672 252 672 252 683 87 c 1,112,-1
 687 86 l 1,113,-1
 768.5 222 l 2,114,115
 801 276.321 801 276.321 801 331.5 c 0,116,117
 801 341 801 341 787.5 365.5 c 128,-1,118
 774 390 774 390 774 409.5 c 0,119,120
 774 424 774 424 792.5 431.5 c 128,-1,121
 811 439 811 439 831 439 c 0,122,123
 854.47 439 854.47 439 874.985 427.559 c 128,-1,124
 895.5 416.118 895.5 416.118 895.5 392.5 c 0,125,126
 895.5 355.554 895.5 355.554 884.332 321.768 c 128,-1,127
 873.183 288.038 873.183 288.038 845 242 c 2,128,-1
 654 -70 l 2,129,130
 608.492 -144.3 608.492 -144.3 549.528 -190.45 c 128,-1,131
 490.564 -236.6 490.564 -236.6 444.8 -236.6 c 0,132,133
 422.684 -236.6 422.684 -236.6 399.241 -222.82 c 0,134,135
 388.542 -216.531 388.542 -216.531 382.726 -206.77 c 1,78,79
EndSplineSet
EndChar

StartChar: uniFB01
Encoding: 64257 64257 14
Width: 658
VWidth: 999
Flags: W
LayerCount: 2
Fore
SplineSet
610.3 320.2 m 2,0,-1
 568 124 l 2,1,2
 554.849 63 554.849 63 572 63 c 0,3,4
 581 63 581 63 602.5 76.5 c 128,-1,5
 624 90 624 90 642 110 c 1,6,7
 651 110 651 110 659.5 100.5 c 128,-1,8
 668 91 668 91 671 82 c 1,9,10
 637 38 637 38 588 14 c 128,-1,11
 539 -10 539 -10 486 -10 c 0,12,13
 449 -10 449 -10 437 23 c 0,14,15
 429.031 44.9159 429.031 44.9159 444 115 c 2,16,-1
 488 321 l 2,17,18
 494 349.091 494 349.091 494 362 c 0,19,20
 494 381 494 381 476 382 c 1,21,-1
 319 382 l 1,22,-1
 316 365 l 2,23,24
 307.748 318.237 307.748 318.237 291.299 239.767 c 128,-1,25
 274.829 161.197 274.829 161.197 268.9 130 c 0,26,27
 256.953 67.27 256.953 67.27 242.416 19.1659 c 128,-1,28
 227.879 -28.9382 227.879 -28.9382 208.14 -65.7706 c 128,-1,29
 188.401 -102.603 188.401 -102.603 180.179 -115.418 c 128,-1,30
 171.956 -128.234 171.956 -128.234 150.8 -157.6 c 0,31,32
 123.865 -194.961 123.865 -194.961 87.0276 -214.08 c 128,-1,33
 50.1898 -233.2 50.1898 -233.2 11.6 -233.2 c 0,34,35
 -44.0989 -233.2 -44.0989 -233.2 -73.1494 -212.566 c 128,-1,36
 -102.2 -191.932 -102.2 -191.932 -102.2 -168 c 0,37,38
 -102.2 -150.437 -102.2 -150.437 -89.8899 -136.119 c 128,-1,39
 -77.5798 -121.8 -77.5798 -121.8 -54.7 -121.8 c 0,40,41
 -39.2819 -121.8 -39.2819 -121.8 -23.829 -133.16 c 128,-1,42
 -8.37608 -144.519 -8.37608 -144.519 1.30001 -157.8 c 0,43,44
 2.1662 -159.163 2.1662 -159.163 4.43779 -162.838 c 128,-1,45
 6.70938 -166.513 6.70938 -166.513 7.57881 -167.828 c 128,-1,46
 8.44825 -169.142 8.44825 -169.142 10.5694 -172.025 c 128,-1,47
 12.6906 -174.909 12.6906 -174.909 14.0398 -176.04 c 128,-1,48
 15.3889 -177.171 15.3889 -177.171 17.7839 -179.038 c 128,-1,49
 20.1789 -180.904 20.1789 -180.904 22.4319 -181.628 c 128,-1,50
 24.685 -182.351 24.685 -182.351 27.778 -182.975 c 128,-1,51
 30.871 -183.6 30.871 -183.6 34.4 -183.6 c 0,52,53
 47.9637 -183.6 47.9637 -183.6 63.6172 -173.364 c 128,-1,54
 79.2708 -163.128 79.2708 -163.128 89.2 -147.6 c 0,55,56
 104.673 -123.426 104.673 -123.426 115.718 -84.2958 c 128,-1,57
 126.763 -45.1655 126.763 -45.1655 131.021 -16.9308 c 128,-1,58
 135.279 11.304 135.279 11.304 141.459 67.2886 c 128,-1,59
 147.639 123.273 147.639 123.273 150 141 c 0,60,61
 154 171 154 171 191 382 c 1,62,-1
 109 382 l 2,63,64
 103 382 103 382 103 384 c 0,65,66
 103 397 103 397 107 409 c 0,67,68
 110.977 424.908 110.977 424.908 135 426 c 2,69,-1
 201 429 l 1,70,71
 216 506 216 506 238.5 547 c 128,-1,72
 261 588 261 588 303 634 c 0,73,74
 329.12 662.297 329.12 662.297 366.24 680.048 c 128,-1,75
 403.359 697.8 403.359 697.8 442.3 697.8 c 0,76,77
 486.017 697.8 486.017 697.8 526.779 684.371 c 128,-1,78
 567.542 670.941 567.542 670.941 602.721 645.796 c 128,-1,79
 637.9 620.649 637.9 620.649 637.9 592.1 c 0,80,81
 637.9 567.175 637.9 567.175 623.037 546.087 c 128,-1,82
 608.174 525 608.174 525 577 525 c 0,83,84
 558.951 525 558.951 525 545.758 532.072 c 128,-1,85
 532.563 539.144 532.563 539.144 525.044 552.222 c 128,-1,86
 517.524 565.3 517.524 565.3 513.748 576.646 c 128,-1,87
 509.972 587.994 509.972 587.994 507 603.5 c 0,88,89
 502.378 625.312 502.378 625.312 490.895 636.756 c 128,-1,90
 479.412 648.2 479.412 648.2 452.7 648.2 c 0,91,92
 427.799 648.2 427.799 648.2 408.185 629.99 c 128,-1,93
 388.571 611.781 388.571 611.781 373.3 585 c 0,94,95
 350.327 544.555 350.327 544.555 338 486 c 2,96,-1
 326 429 l 1,97,-1
 495.9 429 l 1,98,99
 574.875 436 574.875 436 610 436 c 0,100,101
 630.5 436 630.5 436 630.5 414.9 c 0,102,103
 630.5 407.277 630.5 407.277 627.547 393.315 c 128,-1,104
 624.594 379.354 624.594 379.354 618.92 356.584 c 0,105,106
 613.172 333.52 613.172 333.52 610.3 320.2 c 2,0,-1
EndSplineSet
EndChar

StartChar: uniFB03
Encoding: 64259 64259 15
Width: 992
Flags: W
LayerCount: 2
Fore
SplineSet
521 429 m 1,0,1
 534 491 534 491 554 540 c 1,2,-1
 550 540 l 2,3,4
 531 540 531 540 518.5 551 c 128,-1,5
 506 562 506 562 501.5 573.5 c 128,-1,6
 497 585 497 585 494 602 c 0,7,8
 490 620 490 620 479.5 626.5 c 128,-1,9
 469 633 469 633 448 633 c 0,10,11
 390 633 390 633 365 570 c 0,12,13
 342 513 342 513 337 486 c 2,14,-1
 326 429 l 1,15,-1
 445 429 l 1,16,-1
 456 429 l 1,17,-1
 521 429 l 1,0,1
191 382 m 1,18,-1
 109 382 l 2,19,20
 103 382 103 382 103 384 c 0,21,22
 103 397 103 397 107 409 c 0,23,24
 110.977 424.908 110.977 424.908 135 426 c 2,25,-1
 201 429 l 1,26,27
 223 537 223 537 293 619 c 0,28,29
 318 649 318 649 366.5 666 c 128,-1,30
 415 683 415 683 447 683 c 0,31,32
 500 683 500 683 540 664 c 128,-1,33
 580 645 580 645 594 617 c 1,34,35
 604 632 604 632 614 644 c 0,36,37
 640 674 640 674 699 691 c 128,-1,38
 758 708 758 708 788 708 c 0,39,40
 840 708 840 708 881 689 c 1,41,42
 893 685 893 685 910 676 c 0,43,44
 941 660 941 660 965 636.5 c 128,-1,45
 989 613 989 613 989 592 c 0,46,47
 989 570 989 570 969 550 c 128,-1,48
 949 530 949 530 918 530 c 0,49,50
 886 530 886 530 873.5 551.5 c 128,-1,51
 861 573 861 573 854 618 c 0,52,53
 851 635 851 635 831.5 645.5 c 128,-1,54
 812 656 812 656 790 656 c 0,55,56
 752 656 752 656 742 653 c 1,57,58
 729 646 729 646 718 637 c 1,59,60
 698 618 698 618 685 585 c 0,61,62
 668 541 668 541 657 486 c 2,63,-1
 646 429 l 1,64,-1
 786 429 l 2,65,66
 804.539 429 804.539 429 844.857 431.088 c 1,67,68
 899.928 435.996 899.928 435.996 942.929 436 c 0,69,70
 964 436 964 436 964 415 c 0,71,72
 964 407 964 407 960.5 393 c 0,73,74
 957.432 378.704 957.432 378.704 951.92 356.584 c 0,75,76
 946.245 333.815 946.245 333.815 943.3 320.2 c 2,77,-1
 939.709 303.543 l 1,78,-1
 926 235 l 1,79,-1
 926 230 l 1,80,81
 921.035 207.494 921.035 207.494 915.961 193.395 c 1,82,-1
 901 124 l 2,83,84
 887 63 887 63 905 63 c 0,85,86
 914 63 914 63 935.5 76.5 c 128,-1,87
 957 90 957 90 975 110 c 1,88,89
 984 110 984 110 992.5 100.5 c 128,-1,90
 1001 91 1001 91 1004 82 c 1,91,92
 970 38 970 38 921 14 c 128,-1,93
 872 -10 872 -10 819 -10 c 0,94,95
 782 -10 782 -10 770 23 c 0,96,97
 762 45 762 45 777 115 c 2,98,-1
 821 321 l 2,99,100
 827 350 827 350 827 362 c 0,101,102
 827 381 827 381 809 382 c 1,103,-1
 762 382 l 1,104,-1
 639 382 l 1,105,-1
 636 365 l 2,106,107
 626.165 309.27 626.165 309.27 611.5 239.5 c 0,108,109
 593.981 156.148 593.981 156.148 589 130 c 2,110,-1
 585 109 l 1,111,112
 569 34 569 34 550 -17.5 c 128,-1,113
 531 -69 531 -69 518 -89 c 128,-1,114
 505 -109 505 -109 482 -136 c 0,115,116
 456 -166 456 -166 412.5 -186 c 128,-1,117
 369 -206 369 -206 332 -206 c 0,118,119
 276 -206 276 -206 247 -185.5 c 128,-1,120
 218 -165 218 -165 218 -141 c 0,121,122
 218 -123 218 -123 230 -109 c 128,-1,123
 242 -95 242 -95 265 -95 c 0,124,125
 282 -95 282 -95 298.5 -106.5 c 128,-1,126
 315 -118 315 -118 321 -131 c 128,-1,127
 327 -144 327 -144 334 -150.5 c 128,-1,128
 341 -157 341 -157 354 -157 c 0,129,130
 368 -157 368 -157 383.5 -146.5 c 128,-1,131
 399 -136 399 -136 409 -121 c 0,132,133
 422 -101 422 -101 431 -79.5 c 128,-1,134
 440 -58 440 -58 447 -24 c 128,-1,135
 454 10 454 10 456.5 24 c 128,-1,136
 459 38 459 38 465 86 c 128,-1,137
 471 134 471 134 472 141 c 0,138,139
 482 219 482 219 511 382 c 1,140,-1
 432 382 l 1,141,-1
 429 382 l 1,142,-1
 419 382 l 1,143,-1
 319 382 l 1,144,-1
 316 365 l 2,145,146
 306.165 309.27 306.165 309.27 291.5 239.5 c 0,147,148
 275 161 275 161 269 130 c 0,149,150
 256.464 65.232 256.464 65.232 242 17.5 c 0,151,152
 227 -32 227 -32 209 -67.5 c 128,-1,153
 191 -103 191 -103 180 -120.5 c 128,-1,154
 169 -138 169 -138 151 -163 c 0,155,156
 123 -200 123 -200 86.5 -219 c 128,-1,157
 50 -238 50 -238 12 -238 c 0,158,159
 -44 -238 -44 -238 -73 -217.5 c 128,-1,160
 -102 -197 -102 -197 -102 -173 c 0,161,162
 -102 -155 -102 -155 -90 -141 c 128,-1,163
 -78 -127 -78 -127 -55 -127 c 0,164,165
 -38 -127 -38 -127 -21.5 -138 c 128,-1,166
 -5 -149 -5 -149 1 -163 c 0,167,168
 7 -176 7 -176 14 -182.5 c 128,-1,169
 21 -189 21 -189 34 -189 c 0,170,171
 48 -189 48 -189 63.5 -178.5 c 128,-1,172
 79 -168 79 -168 89 -153 c 0,173,174
 105 -128 105 -128 116 -88.5 c 128,-1,175
 127 -49 127 -49 131 -19 c 128,-1,176
 135 11 135 11 141 66.5 c 128,-1,177
 147 122 147 122 150 141 c 0,178,179
 154 171 154 171 191 382 c 1,18,-1
EndSplineSet
EndChar

StartChar: uniE0F8
Encoding: 57592 57592 16
Width: 330
VWidth: 999
Flags: HWO
HStem: -206.8 35.2<9.7255 59.7221> 385 38<117.417 159> 416 20<277 299.624> 530 128<220.302 320.126>
VStem: 177 136.5<312.098 422.7> 204 135<548.993 640.845>
DStem2: 63.9517 -206.775 182.598 -206.775 0.207912 0.978148<195.352 579.437>
LayerCount: 2
Fore
SplineSet
141 176 m 2,0,-1
 171 321 l 2,1,2
 177 350 177 350 177 362 c 0,3,4
 177 380.65 177 380.65 159 382 c 2,5,-1
 119 385 l 1,6,7
 115 392 115 392 115.5 404.5 c 128,-1,8
 116 417 116 417 121 423 c 1,9,10
 223 436 223 436 293 436 c 0,11,12
 313.5 436 313.5 436 313.5 414.9 c 0,13,14
 313.5 407.42 313.5 407.42 310.322 393.156 c 128,-1,15
 307.143 378.891 307.143 378.891 301.745 357.278 c 128,-1,16
 296.359 335.716 296.359 335.716 293.3 320.2 c 2,17,-1
 276.5 235 l 2,18,19
 276.144 233.322 276.144 233.322 275.512 230.334 c 0,20,21
 261.122 162.4 261.122 162.4 238.581 56.4054 c 128,-1,22
 216.04 -49.5889 216.04 -49.5889 201.162 -105.369 c 128,-1,23
 186.285 -161.15 186.285 -161.15 174.196 -189.222 c 128,-1,24
 162.107 -217.293 162.107 -217.293 142.237 -254.285 c 128,-1,25
 122.366 -291.277 122.366 -291.277 100.983 -308.63 c 128,-1,26
 79.6006 -325.983 79.6006 -325.983 49.9912 -338.892 c 128,-1,27
 20.3818 -351.8 20.3818 -351.8 -14.7998 -351.8 c 0,28,29
 -63.8486 -351.8 -63.8486 -351.8 -94.6748 -336.806 c 128,-1,30
 -125.5 -321.812 -125.5 -321.812 -125.5 -289.2 c 0,31,32
 -125.5 -267.895 -125.5 -267.895 -113.414 -256.047 c 128,-1,33
 -101.327 -244.2 -101.327 -244.2 -86.2998 -244.2 c 0,34,35
 -63.7881 -244.2 -63.7881 -244.2 -49.4365 -255.513 c 128,-1,36
 -35.085 -266.825 -35.085 -266.825 -30.084 -280.4 c 128,-1,37
 -25.083 -293.975 -25.083 -293.975 -16.752 -305.287 c 128,-1,38
 -8.42188 -316.6 -8.42188 -316.6 3.5 -316.6 c 0,39,40
 21.7637 -316.6 21.7637 -316.6 35.6494 -290.981 c 128,-1,41
 49.5352 -265.363 49.5352 -265.363 66 -201 c 0,42,43
 76 -161 76 -161 89.5 -84.5 c 0,44,45
 103.4 -5.73333 103.4 -5.73333 141 176 c 2,0,-1
204 596 m 0,46,47
 204 621 204 621 222.5 639.5 c 128,-1,48
 241 658 241 658 274 658 c 0,49,50
 303 658 303 658 321 637.5 c 128,-1,51
 339 617 339 617 339 592 c 0,52,53
 339 570 339 570 319 550 c 128,-1,54
 299 530 299 530 268 530 c 0,55,56
 239 530 239 530 221.5 550 c 128,-1,57
 204 570 204 570 204 596 c 0,46,47
EndSplineSet
EndChar

StartChar: uniE102
Encoding: 57602 57602 17
Width: 315
Flags: W
HStem: -213 21G<154.5 286.75>
VStem: 36 115<108.014 396.52>
LayerCount: 2
Fore
SplineSet
36 253 m 0,0,1
 36 384 36 384 101 507 c 128,-1,2
 166 630 166 630 270 720 c 1,3,-1
 298 686 l 1,4,5
 151 514 151 514 151 253 c 0,6,7
 151 -16 151 -16 298 -181 c 1,8,-1
 268 -213 l 1,9,10
 204 -158 204 -158 157 -93 c 128,-1,11
 110 -28 110 -28 88 22 c 128,-1,12
 66 72 66 72 53 126.5 c 128,-1,13
 40 181 40 181 38 205.5 c 128,-1,14
 36 230 36 230 36 253 c 0,0,1
EndSplineSet
EndChar

StartChar: uniE103
Encoding: 57603 57603 18
Width: 315
VWidth: 999
Flags: W
HStem: 696 21<28.25 160.5>
VStem: 164 115<107.48 395.986>
LayerCount: 2
Fore
SplineSet
279 251 m 0,0,1
 279 120 279 120 214 -3 c 128,-1,2
 149 -126 149 -126 45 -216 c 1,3,-1
 17 -182 l 1,4,5
 164 -11 164 -11 164 251 c 0,6,7
 164 520 164 520 17 685 c 1,8,-1
 47 717 l 1,9,10
 111 662 111 662 158 597 c 128,-1,11
 205 532 205 532 227 482 c 128,-1,12
 249 432 249 432 262 377.5 c 128,-1,13
 275 323 275 323 277 298.5 c 128,-1,14
 279 274 279 274 279 251 c 0,0,1
EndSplineSet
EndChar

StartChar: uniE104
Encoding: 57604 57604 19
Width: 397
Flags: W
HStem: -193 30<244.088 345.511> 673 30<241.533 345.511>
VStem: 97 100<-135 645.875>
LayerCount: 2
Fore
SplineSet
97 -193 m 1,0,-1
 97 703 l 1,1,-1
 342 703 l 1,2,3
 346 698 346 698 346 688 c 128,-1,4
 346 678 346 678 342 673 c 1,5,6
 271 668 271 668 242 657.5 c 128,-1,7
 213 647 213 647 205 628 c 128,-1,8
 197 609 197 609 197 561 c 2,9,-1
 197 -50 l 2,10,11
 197 -87 197 -87 200 -103.5 c 128,-1,12
 203 -120 203 -120 218.5 -134.5 c 128,-1,13
 234 -149 234 -149 261 -154 c 128,-1,14
 288 -159 288 -159 342 -163 c 1,15,16
 346 -168 346 -168 346 -178 c 128,-1,17
 346 -188 346 -188 342 -193 c 1,18,-1
 97 -193 l 1,0,-1
EndSplineSet
EndChar

StartChar: uniE105
Encoding: 57605 57605 20
Width: 397
VWidth: 999
Flags: W
HStem: -195 30<53.4888 157.467> 671 30<53.4888 154.912>
VStem: 202 107<-137.875 643>
LayerCount: 2
Fore
SplineSet
302 701 m 1,0,-1
 302 -195 l 1,1,-1
 57 -195 l 1,2,3
 52 -190 52 -190 52 -180 c 128,-1,4
 52 -170 52 -170 57 -165 c 1,5,6
 128 -160 128 -160 157 -149.5 c 128,-1,7
 186 -139 186 -139 194 -120 c 128,-1,8
 202 -101 202 -101 202 -53 c 2,9,-1
 202 558 l 2,10,11
 202 595 202 595 199 611.5 c 128,-1,12
 196 628 196 628 180.5 642.5 c 128,-1,13
 165 657 165 657 138 662 c 128,-1,14
 111 667 111 667 57 671 c 1,15,16
 52 676 52 676 52 686 c 128,-1,17
 52 696 52 696 57 701 c 1,18,-1
 302 701 l 1,0,-1
EndSplineSet
EndChar

StartChar: uniE106
Encoding: 57606 57606 21
Width: 307
VWidth: 999
Flags: W
HStem: -212 24<255.497 291.757> 231 32<9.56719 65.1507> 683 24<258.392 291.757>
VStem: 106 102<406.75 636.203> 112 104<300.375 531.25>
LayerCount: 2
Fore
SplineSet
208 552 m 2,0,-1
 216 386 l 2,1,2
 219 324 219 324 193 294.5 c 128,-1,3
 167 265 167 265 111 249 c 1,4,-1
 111 245 l 1,5,6
 166 222 166 222 192.5 187.5 c 128,-1,7
 219 153 219 153 216 95 c 2,8,-1
 208 -54 l 2,9,10
 205 -114 205 -114 229 -151 c 128,-1,11
 253 -188 253 -188 288 -188 c 1,12,13
 292 -192 292 -192 292 -200 c 128,-1,14
 292 -208 292 -208 288 -212 c 1,15,16
 202 -212 202 -212 152.5 -175.5 c 128,-1,17
 103 -139 103 -139 106 -49 c 2,18,-1
 112 121 l 2,19,20
 115 219 115 219 14 231 c 1,21,22
 8 237 8 237 7.5 246.5 c 128,-1,23
 7 256 7 256 14 263 c 1,24,25
 65 268 65 268 88.5 298 c 128,-1,26
 112 328 112 328 112 370 c 1,27,-1
 106 554 l 2,28,29
 103 632 103 632 157 669.5 c 128,-1,30
 211 707 211 707 288 707 c 1,31,32
 292 702 292 702 292 695 c 128,-1,33
 292 688 292 688 288 683 c 1,34,35
 270 678 270 678 258.5 672 c 128,-1,36
 247 666 247 666 232.5 652.5 c 128,-1,37
 218 639 218 639 212 614 c 128,-1,38
 206 589 206 589 208 552 c 2,0,-1
EndSplineSet
EndChar

StartChar: uniE107
Encoding: 57607 57607 22
Width: 307
VWidth: 999
Flags: W
HStem: -211 24<15.2427 48.6079> 233 32<241.849 297.433> 684 24<15.2427 51.5029>
VStem: 91 104<-35.25 195.625> 99 102<-140.203 89.25>
LayerCount: 2
Fore
SplineSet
99 -56 m 2,0,-1
 91 110 l 2,1,2
 88 172 88 172 114 201.5 c 128,-1,3
 140 231 140 231 196 247 c 1,4,-1
 196 251 l 1,5,6
 141 274 141 274 114.5 308.5 c 128,-1,7
 88 343 88 343 91 401 c 2,8,-1
 99 550 l 2,9,10
 102 610 102 610 78 647 c 128,-1,11
 54 684 54 684 19 684 c 1,12,13
 14 688 14 688 14 696 c 128,-1,14
 14 704 14 704 19 708 c 1,15,16
 105 708 105 708 154.5 671.5 c 128,-1,17
 204 635 204 635 201 545 c 2,18,-1
 195 375 l 2,19,20
 192 277 192 277 293 265 c 1,21,22
 299 259 299 259 299.5 249.5 c 128,-1,23
 300 240 300 240 293 233 c 1,24,25
 242 228 242 228 218.5 198 c 128,-1,26
 195 168 195 168 195 126 c 1,27,-1
 201 -58 l 2,28,29
 204 -136 204 -136 150 -173.5 c 128,-1,30
 96 -211 96 -211 19 -211 c 1,31,32
 14 -206 14 -206 14 -199 c 128,-1,33
 14 -192 14 -192 19 -187 c 1,34,35
 37 -182 37 -182 48.5 -176 c 128,-1,36
 60 -170 60 -170 74.5 -156.5 c 128,-1,37
 89 -143 89 -143 95 -118 c 128,-1,38
 101 -93 101 -93 99 -56 c 2,0,-1
EndSplineSet
EndChar

StartChar: ohungarumlaut.sc
Encoding: 57509 57509 23
Width: 564
VWidth: 714
Flags: WO
HStem: -10 40<231.856 353.884> 434 40<300.459 429.648>
VStem: 74.6 130.7<76.2382 272.68> 454.1 128.7<191.725 387.466>
LayerCount: 2
Fore
SplineSet
412 635 m 0,0,1
 412 624 412 624 407 619 c 2,2,-1
 307 527 l 2,3,4
 290 512 290 512 282 512 c 0,5,6
 269 512 269 512 269 528 c 0,7,8
 269 536 269 536 272 541 c 2,9,-1
 338 659 l 2,10,11
 345 672 345 672 369 672 c 0,12,13
 386 672 386 672 399 661 c 128,-1,14
 412 650 412 650 412 635 c 0,0,1
544 623 m 0,15,16
 544 608 544 608 530 598 c 2,17,-1
 425 523 l 2,18,19
 414 515 414 515 409 515 c 0,20,21
 403 515 403 515 398.5 519.5 c 128,-1,22
 394 524 394 524 394 531 c 256,23,24
 394 538 394 538 398 545 c 2,25,-1
 473 649 l 1,26,27
 483 667 483 667 502 667 c 0,28,29
 520 667 520 667 532 654 c 128,-1,30
 544 641 544 641 544 623 c 0,15,16
365 434 m 0,31,32
 310 434 310 434 275.5 389 c 128,-1,33
 241 344 241 344 218 234 c 0,34,35
 205.3 171.119 205.3 171.119 205.3 130.7 c 0,36,37
 205.3 79.3304 205.3 79.3304 225.627 54.6652 c 128,-1,38
 245.953 30 245.953 30 290 30 c 0,39,40
 348 30 348 30 383.5 77 c 128,-1,41
 419 124 419 124 439 221 c 0,42,43
 454.1 295.714 454.1 295.714 454.1 338.3 c 0,44,45
 454.1 388.335 454.1 388.335 433.307 411.167 c 128,-1,46
 412.513 434 412.513 434 365 434 c 0,31,32
576 235 m 0,47,48
 552 116 552 116 470.5 53 c 128,-1,49
 389 -10 389 -10 278 -10 c 0,50,51
 187.835 -10 187.835 -10 131.217 33.5712 c 128,-1,52
 74.6 77.1423 74.6 77.1423 74.6 163.2 c 0,53,54
 74.6 190.447 74.6 190.447 81 222 c 0,55,56
 104 338 104 338 187.5 406 c 128,-1,57
 271 474 271 474 375 474 c 0,58,59
 470.926 474 470.926 474 526.863 429.108 c 128,-1,60
 582.8 384.217 582.8 384.217 582.8 297.6 c 0,61,62
 582.8 268.261 582.8 268.261 576 235 c 0,47,48
EndSplineSet
EndChar

StartChar: uhungarumlaut.sc
Encoding: 57518 57518 24
Width: 581
VWidth: 714
Flags: WO
HStem: -10 42<270.499 403.817> 428 34<103.511 155.789 312.578 378.489 449.511 504.172 590.195 658.489>
DStem2: 84.8654 -10 209.339 -10 0.207912 0.978148<124.98 429.325> 435.638 -10 483.938 -10 0.207912 0.978148<85.1064 427.219>
LayerCount: 2
Fore
SplineSet
442 635 m 0,0,1
 442 624 442 624 437 619 c 2,2,-1
 337 527 l 2,3,4
 320 512 320 512 312 512 c 0,5,6
 299 512 299 512 299 528 c 0,7,8
 299 536 299 536 302 541 c 2,9,-1
 368 659 l 2,10,11
 375 672 375 672 399 672 c 0,12,13
 416 672 416 672 429 661 c 128,-1,14
 442 650 442 650 442 635 c 0,0,1
574 623 m 0,15,16
 574 608 574 608 560 598 c 2,17,-1
 455 523 l 2,18,19
 444 515 444 515 439 515 c 0,20,21
 433 515 433 515 428.5 519.5 c 128,-1,22
 424 524 424 524 424 531 c 256,23,24
 424 538 424 538 428 545 c 2,25,-1
 503 649 l 1,26,27
 513 667 513 667 532 667 c 0,28,29
 550 667 550 667 562 654 c 128,-1,30
 574 641 574 641 574 623 c 0,15,16
507 332 m 2,31,32
 519 392 519 392 506.5 409 c 128,-1,33
 494 426 494 426 447 428 c 1,34,35
 443 433 443 433 446 445 c 128,-1,36
 449 457 449 457 454 462 c 1,37,38
 536 460 536 460 561 460 c 0,39,40
 579 460 579 460 661 462 c 1,41,42
 665 457 665 457 662 445 c 128,-1,43
 659 433 659 433 654 428 c 1,44,45
 606 426 606 426 586.5 409 c 128,-1,46
 567 392 567 392 555 332 c 2,47,-1
 529 202 l 2,48,49
 518 150 518 150 503.5 114.5 c 128,-1,50
 489 79 489 79 463.5 49 c 128,-1,51
 438 19 438 19 398 4.5 c 128,-1,52
 358 -10 358 -10 301 -10 c 0,53,54
 258 -10 258 -10 225 -3.5 c 128,-1,55
 192 3 192 3 162 20 c 128,-1,56
 132 37 132 37 121 72.5 c 128,-1,57
 110 108 110 108 121 160 c 2,58,-1
 156 332 l 1,59,60
 167 395 167 395 157 410.5 c 128,-1,61
 147 426 147 426 101 428 c 1,62,63
 97 433 97 433 100 445 c 128,-1,64
 103 457 103 457 108 462 c 1,65,66
 190 460 190 460 244 460 c 0,67,68
 299 460 299 460 381 462 c 1,69,70
 385 457 385 457 382 445 c 128,-1,71
 379 433 379 433 374 428 c 1,72,73
 328 426 328 426 310 409.5 c 128,-1,74
 292 393 292 393 280 332 c 2,75,-1
 251 186 l 2,76,77
 237 117 237 117 254 74.5 c 128,-1,78
 271 32 271 32 326 32 c 0,79,80
 366 32 366 32 394 45 c 128,-1,81
 422 58 422 58 438.5 84 c 128,-1,82
 455 110 455 110 463.5 134 c 128,-1,83
 472 158 472 158 479 194 c 2,84,-1
 507 332 l 2,31,32
EndSplineSet
EndChar

StartChar: uniE0FA
Encoding: 57594 57594 25
Width: 397
VWidth: 999
Flags: HWO
HStem: -233.2 49.6<3.91472 77.1216> 382 47<107.097 191 326 437.897> 648.2 49.6<389.681 480.293>
VStem: 484 104.8<567.831 644.796>
DStem2: 60.2348 -233.202 191.745 -233.202 0.207912 0.978148<258.522 628.946 702.987 836.408>
LayerCount: 2
Fore
SplineSet
191 382 m 1,0,-1
 109 382 l 2,1,2
 103 382 103 382 103 384 c 0,3,4
 103 397 103 397 107 409 c 0,5,6
 110.977 424.908 110.977 424.908 135 426 c 2,7,-1
 201 429 l 1,8,9
 228 557 228 557 293 634 c 0,10,11
 318.549 664.089 318.549 664.089 362.673 680.945 c 128,-1,12
 406.796 697.8 406.796 697.8 437.3 697.8 c 0,13,14
 500.642 697.8 500.642 697.8 544.721 671.429 c 128,-1,15
 588.8 645.059 588.8 645.059 588.8 608.5 c 0,16,17
 588.8 588.541 588.8 588.541 576.832 571.621 c 128,-1,18
 564.863 554.7 564.863 554.7 539.9 554.7 c 0,19,20
 521.05 554.7 521.05 554.7 508.526 565.793 c 128,-1,21
 496.002 576.887 496.002 576.887 491.641 588.607 c 128,-1,22
 487.28 600.327 487.28 600.327 484 617.5 c 0,23,24
 480.293 635.09 480.293 635.09 469.738 641.645 c 128,-1,25
 459.183 648.2 459.183 648.2 437.7 648.2 c 0,26,27
 390.28 648.2 390.28 648.2 365 585 c 0,28,29
 347.623 541.046 347.623 541.046 337 486 c 2,30,-1
 326 429 l 1,31,-1
 436 429 l 2,32,33
 443.833 429 443.833 429 443 424 c 2,34,-1
 438 394 l 2,35,36
 436 382 436 382 412 382 c 2,37,-1
 319 382 l 1,38,-1
 316 365 l 2,39,40
 291.723 227.43 291.723 227.43 272.299 134.767 c 0,41,42
 255.829 56.1973 255.829 56.1973 249.9 25 c 0,43,44
 237.953 -37.7305 237.953 -37.7305 223.416 -85.834 c 128,-1,45
 208.879 -133.938 208.879 -133.938 189.14 -170.771 c 128,-1,46
 169.401 -207.604 169.401 -207.604 161.179 -220.418 c 128,-1,47
 152.956 -233.233 152.956 -233.233 131.8 -262.6 c 0,48,49
 104.865 -299.961 104.865 -299.961 68.0273 -319.08 c 128,-1,50
 31.1895 -338.2 31.1895 -338.2 -7.40039 -338.2 c 0,51,52
 -63.0986 -338.2 -63.0986 -338.2 -92.1494 -317.566 c 128,-1,53
 -121.2 -296.933 -121.2 -296.933 -121.2 -273 c 0,54,55
 -121.2 -255.438 -121.2 -255.438 -108.89 -241.119 c 128,-1,56
 -96.5801 -226.8 -96.5801 -226.8 -73.7002 -226.8 c 0,57,58
 -58.2822 -226.8 -58.2822 -226.8 -42.8291 -238.159 c 128,-1,59
 -27.376 -249.52 -27.376 -249.52 -17.7002 -262.8 c 0,60,61
 -16.834 -264.162 -16.834 -264.162 -14.5625 -267.838 c 128,-1,62
 -12.291 -271.514 -12.291 -271.514 -11.4209 -272.828 c 128,-1,63
 -10.5518 -274.142 -10.5518 -274.142 -8.43066 -277.025 c 128,-1,64
 -6.30957 -279.909 -6.30957 -279.909 -4.95996 -281.04 c 128,-1,65
 -3.61133 -282.172 -3.61133 -282.172 -1.21582 -284.038 c 128,-1,66
 1.17871 -285.904 1.17871 -285.904 3.43164 -286.628 c 128,-1,67
 5.68457 -287.351 5.68457 -287.351 8.77832 -287.976 c 128,-1,68
 11.8711 -288.6 11.8711 -288.6 15.4004 -288.6 c 0,69,70
 28.9639 -288.6 28.9639 -288.6 44.6172 -278.364 c 128,-1,71
 60.2705 -268.129 60.2705 -268.129 70.2002 -252.6 c 0,72,73
 85.6729 -228.426 85.6729 -228.426 96.7178 -189.296 c 128,-1,74
 107.764 -150.166 107.764 -150.166 112.021 -121.931 c 128,-1,75
 116.278 -93.6963 116.278 -93.6963 122.459 -37.7119 c 0,76,77
 135.077 76.6057 135.077 76.6057 191 382 c 1,0,-1
EndSplineSet
EndChar

StartChar: uniE0FC
Encoding: 57596 57596 26
Width: 658
VWidth: 999
Flags: HWO
LayerCount: 2
Fore
SplineSet
610.3 320.2 m 2,0,-1
 568 124 l 2,1,2
 554.849 63 554.849 63 572 63 c 0,3,4
 581 63 581 63 602.5 76.5 c 128,-1,5
 624 90 624 90 642 110 c 1,6,7
 651 110 651 110 659.5 100.5 c 128,-1,8
 668 91 668 91 671 82 c 1,9,10
 637 38 637 38 588 14 c 128,-1,11
 539 -10 539 -10 486 -10 c 0,12,13
 449 -10 449 -10 437 23 c 0,14,15
 429.031 44.9166 429.031 44.9166 444 115 c 2,16,-1
 488 321 l 2,17,18
 494 349.091 494 349.091 494 362 c 0,19,20
 494 381 494 381 476 382 c 1,21,-1
 319 382 l 1,22,-1
 316 365 l 2,23,24
 291.722 227.424 291.722 227.424 272.299 134.767 c 0,25,26
 255.829 56.1973 255.829 56.1973 249.9 25 c 0,27,28
 237.953 -37.7305 237.953 -37.7305 223.416 -85.834 c 128,-1,29
 208.879 -133.938 208.879 -133.938 189.14 -170.771 c 128,-1,30
 169.401 -207.603 169.401 -207.603 161.179 -220.418 c 128,-1,31
 152.956 -233.234 152.956 -233.234 131.8 -262.6 c 0,32,33
 104.865 -299.961 104.865 -299.961 68.0273 -319.08 c 128,-1,34
 31.1895 -338.2 31.1895 -338.2 -7.40039 -338.2 c 0,35,36
 -63.0986 -338.2 -63.0986 -338.2 -92.1494 -317.566 c 128,-1,37
 -121.2 -296.932 -121.2 -296.932 -121.2 -273 c 0,38,39
 -121.2 -255.437 -121.2 -255.437 -108.89 -241.119 c 128,-1,40
 -96.5801 -226.8 -96.5801 -226.8 -73.7002 -226.8 c 0,41,42
 -58.2822 -226.8 -58.2822 -226.8 -42.8291 -238.16 c 128,-1,43
 -27.376 -249.519 -27.376 -249.519 -17.7002 -262.8 c 0,44,45
 -16.834 -264.163 -16.834 -264.163 -14.5625 -267.838 c 128,-1,46
 -12.291 -271.513 -12.291 -271.513 -11.4209 -272.828 c 128,-1,47
 -10.5518 -274.142 -10.5518 -274.142 -8.43066 -277.025 c 128,-1,48
 -6.30957 -279.909 -6.30957 -279.909 -4.95996 -281.04 c 128,-1,49
 -3.61133 -282.171 -3.61133 -282.171 -1.21582 -284.038 c 128,-1,50
 1.17871 -285.904 1.17871 -285.904 3.43164 -286.628 c 128,-1,51
 5.68457 -287.351 5.68457 -287.351 8.77832 -287.975 c 128,-1,52
 11.8711 -288.6 11.8711 -288.6 15.4004 -288.6 c 0,53,54
 28.9639 -288.6 28.9639 -288.6 44.6172 -278.364 c 128,-1,55
 60.2705 -268.128 60.2705 -268.128 70.2002 -252.6 c 0,56,57
 85.6729 -228.426 85.6729 -228.426 96.7178 -189.296 c 128,-1,58
 107.763 -150.165 107.763 -150.165 112.021 -121.931 c 128,-1,59
 116.279 -93.6963 116.279 -93.6963 122.459 -37.7109 c 128,-1,60
 128.639 18.2734 128.639 18.2734 131 36 c 0,61,62
 133.135 66 133.135 66 191 382 c 1,63,-1
 109 382 l 2,64,65
 103 382 103 382 103 384 c 0,66,67
 103 397 103 397 107 409 c 0,68,69
 110.977 424.908 110.977 424.908 135 426 c 2,70,-1
 201 429 l 1,71,72
 216 506 216 506 238.5 547 c 128,-1,73
 261 588 261 588 303 634 c 0,74,75
 329.12 662.297 329.12 662.297 366.24 680.048 c 128,-1,76
 403.359 697.8 403.359 697.8 442.3 697.8 c 0,77,78
 486.017 697.8 486.017 697.8 526.779 684.371 c 128,-1,79
 567.542 670.941 567.542 670.941 602.721 645.796 c 128,-1,80
 637.9 620.649 637.9 620.649 637.9 592.1 c 0,81,82
 637.9 567.175 637.9 567.175 623.037 546.087 c 128,-1,83
 608.174 525 608.174 525 577 525 c 0,84,85
 558.951 525 558.951 525 545.758 532.072 c 128,-1,86
 532.563 539.144 532.563 539.144 525.044 552.222 c 128,-1,87
 517.524 565.3 517.524 565.3 513.748 576.646 c 128,-1,88
 509.972 587.994 509.972 587.994 507 603.5 c 0,89,90
 502.378 625.312 502.378 625.312 490.895 636.756 c 128,-1,91
 479.412 648.2 479.412 648.2 452.7 648.2 c 0,92,93
 427.799 648.2 427.799 648.2 408.185 629.99 c 128,-1,94
 388.571 611.781 388.571 611.781 373.3 585 c 0,95,96
 350.328 544.556 350.328 544.556 338 486 c 2,97,-1
 326 429 l 1,98,-1
 495.9 429 l 1,99,100
 574.875 436 574.875 436 610 436 c 0,101,102
 630.5 436 630.5 436 630.5 414.9 c 0,103,104
 630.5 407.277 630.5 407.277 627.547 393.315 c 128,-1,105
 624.594 379.354 624.594 379.354 618.92 356.584 c 0,106,107
 613.17 333.512 613.17 333.512 610.3 320.2 c 2,0,-1
EndSplineSet
EndChar

StartChar: uniE0FD
Encoding: 57597 57597 27
Width: 433
VWidth: 999
Flags: HWO
HStem: -233.2 49.6<3.91471 77.1216> 382 47<107.12 191 326 437.897> 653.2 44.6<382.7 447.811>
VStem: 450 104.8<566.285 652.415>
DStem2: 60.2348 -233.202 191.745 -233.202 0.207912 0.978148<258.522 628.946 702.987 838.515>
LayerCount: 2
Fore
SplineSet
191 382 m 1,0,-1
 109 382 l 2,1,2
 103 382 103 382 103 384 c 0,3,4
 103 394 103 394 107 409 c 0,5,6
 110.977 424.908 110.977 424.908 135 426 c 2,7,-1
 201 429 l 1,8,9
 228 559 228 559 292 634 c 0,10,11
 318.24 664.904 318.24 664.904 353.786 681.352 c 128,-1,12
 389.331 697.8 389.331 697.8 417.3 697.8 c 0,13,14
 479.344 697.8 479.344 697.8 517.072 671.899 c 128,-1,15
 554.8 645.999 554.8 645.999 554.8 608.5 c 0,16,17
 554.8 588.602 554.8 588.602 542.341 571.151 c 128,-1,18
 529.881 553.7 529.881 553.7 504.9 553.7 c 0,19,20
 457.223 553.7 457.223 553.7 450 617.5 c 0,21,22
 447.609 638.423 447.609 638.423 442.221 645.811 c 128,-1,23
 436.833 653.2 436.833 653.2 417.7 653.2 c 0,24,25
 399.536 653.2 399.536 653.2 387.648 639.212 c 128,-1,26
 375.761 625.224 375.761 625.224 361 585 c 0,27,28
 346.968 548.516 346.968 548.516 336 486 c 2,29,-1
 326 429 l 1,30,-1
 436 429 l 2,31,32
 443.833 429 443.833 429 443 424 c 2,33,-1
 438 394 l 2,34,35
 436 382 436 382 412 382 c 2,36,-1
 319 382 l 1,37,-1
 316 365 l 2,38,39
 291.723 227.43 291.723 227.43 272.299 134.767 c 0,40,41
 255.829 56.1973 255.829 56.1973 249.9 25 c 0,42,43
 237.953 -37.7305 237.953 -37.7305 223.416 -85.834 c 128,-1,44
 208.879 -133.938 208.879 -133.938 189.14 -170.771 c 128,-1,45
 169.401 -207.604 169.401 -207.604 161.179 -220.418 c 128,-1,46
 152.956 -233.233 152.956 -233.233 131.8 -262.6 c 0,47,48
 104.865 -299.961 104.865 -299.961 68.0273 -319.08 c 128,-1,49
 31.1895 -338.2 31.1895 -338.2 -7.40039 -338.2 c 0,50,51
 -63.0986 -338.2 -63.0986 -338.2 -92.1494 -317.566 c 128,-1,52
 -121.2 -296.933 -121.2 -296.933 -121.2 -273 c 0,53,54
 -121.2 -255.438 -121.2 -255.438 -108.89 -241.119 c 128,-1,55
 -96.5801 -226.8 -96.5801 -226.8 -73.7002 -226.8 c 0,56,57
 -58.2822 -226.8 -58.2822 -226.8 -42.8291 -238.159 c 128,-1,58
 -27.376 -249.52 -27.376 -249.52 -17.7002 -262.8 c 0,59,60
 -16.834 -264.162 -16.834 -264.162 -14.5625 -267.838 c 128,-1,61
 -12.291 -271.514 -12.291 -271.514 -11.4209 -272.828 c 128,-1,62
 -10.5518 -274.142 -10.5518 -274.142 -8.43066 -277.025 c 128,-1,63
 -6.30957 -279.909 -6.30957 -279.909 -4.95996 -281.04 c 128,-1,64
 -3.61133 -282.172 -3.61133 -282.172 -1.21582 -284.038 c 128,-1,65
 1.17871 -285.904 1.17871 -285.904 3.43164 -286.628 c 128,-1,66
 5.68457 -287.351 5.68457 -287.351 8.77832 -287.976 c 128,-1,67
 11.8711 -288.6 11.8711 -288.6 15.4004 -288.6 c 0,68,69
 28.9639 -288.6 28.9639 -288.6 44.6172 -278.364 c 128,-1,70
 60.2705 -268.129 60.2705 -268.129 70.2002 -252.6 c 0,71,72
 85.6729 -228.426 85.6729 -228.426 96.7178 -189.296 c 128,-1,73
 107.764 -150.166 107.764 -150.166 112.021 -121.931 c 128,-1,74
 116.278 -93.6963 116.278 -93.6963 122.459 -37.7119 c 128,-1,75
 128.639 18.2734 128.639 18.2734 131 36 c 0,76,77
 133.135 66 133.135 66 191 382 c 1,0,-1
EndSplineSet
EndChar
